<svg xmlns="http://www.w3.org/2000/svg" enable-background="new 0 0 24 24" viewBox="0 0 24 24" width="35" height="35"><path d="M6,6c0-1.1,0.9-2,2-2c0.6,0,1-0.4,1-1S8.6,2,8,2C5.8,2,4,3.8,4,6v3c0,1.1-0.9,2-2,2c-0.6,0-1,0.4-1,1s0.4,1,1,1 c1.1,0,2,0.9,2,2v3c0,2.2,1.8,4,4,4c0.6,0,1-0.4,1-1s-0.4-1-1-1c-1.1,0-2-0.9-2-2v-3c0-1.2-0.5-2.2-1.4-3C5.5,11.2,6,10.2,6,9V6z   M22,11c-1.1,0-2-0.9-2-2V6c0-2.2-1.8-4-4-4c-0.6,0-1,0.4-1,1s0.4,1,1,1c1.1,0,2,0.9,2,2v3c0,1.2,0.5,2.2,1.4,3  c-0.9,0.8-1.4,1.8-1.4,3v3c0,1.1-0.9,2-2,2c-0.6,0-1,0.4-1,1s0.4,1,1,1c2.2,0,4-1.8,4-4v-3c0-1.1,0.9-2,2-2c0.6,0,1-0.4,1-1  S22.6,11,22,11z" fill="#00dc82" class="svgShape color000000-0 selectable"/></svg>