<svg xmlns="http://www.w3.org/2000/svg" viewBox="0 0 64 64" id="shopping">
    <path d="M26.2 34.4a1 1 0 0 0-.156.884l4.174 14a1 1 0 0 0 .958.714h15.461a1 1 0 0 0 .955-.7l4.363-14A1 1 0 0 0 51 34H27a1 1 0 0 0-.8.4zM49.641 36 45.9 48H31.919l-3.577-12z"/>
    <path d="M62 33h-5a1 1 0 0 0-.938.654L49.3 52H29v2h5v2.184a3 3 0 1 0 2 0V54h9v2.184a3 3 0 1 0 2 0V54h3a1 1 0 0 0 .938-.654L57.7 35H62zM35 60a1 1 0 1 1 1-1 1 1 0 0 1-1 1zm11 0a1 1 0 1 1 1-1 1 1 0 0 1-1 1z"/>
    <path d="M33 39h12v2H33zM34 43h10v2H34zM19.915 31.7a1 1 0 0 0 .715.3H31a1 1 0 0 0 1-1V21a1 1 0 0 0-.285-.7l-17.63-18a1 1 0 0 0-1.409-.02l-10.37 10a1 1 0 0 0-.021 1.42zM13.35 4.409l16.65 17V30h-8.95L4.42 13.021zM49.293 10.808c-1.377 1.376-.627 2.805-.179 3.658.494.942.449 1.042.179 1.312a.757.757 0 0 1-1.071-1.071l-1.414-1.414a2.757 2.757 0 0 0 3.9 3.9c1.374-1.374.625-2.8.178-3.655-.495-.943-.449-1.043-.178-1.315a.757.757 0 0 1 1.071 1.071l1.414 1.414a2.757 2.757 0 1 0-3.9-3.9zM11.964 54.5a2.453 2.453 0 0 0 1.743-.721 2.5 2.5 0 0 0 .178-3.241c-.371-.707-.342-.737-.178-.9a.465.465 0 1 1 .657.657l1.414 1.414a2.464 2.464 0 1 0-3.485-3.485 2.5 2.5 0 0 0-.179 3.244c.37.706.341.736.179.9a.465.465 0 1 1-.657-.657l-1.414-1.414a2.463 2.463 0 0 0 1.742 4.203z"/>
    <path d="M53.872 2a1.115 1.115 0 0 0-.715.286L40.3 14.878a1 1 0 0 0-.3.715V23a1 1 0 0 0 1 1h7.143a1 1 0 0 0 .7-.286L61.7 11.122a1 1 0 0 0 .02-1.409l-7.143-7.407A1 1 0 0 0 53.872 2zm-6.138 20H42v-5.987L53.837 4.419l5.755 5.968zM8.709 61.694a1 1 0 0 0 .705.306h.015a1 1 0 0 0 .7-.286L21.7 50.381a1 1 0 0 0 .3-.714V43a1 1 0 0 0-1-1h-6.429a1 1 0 0 0-.7.286L2.3 53.619a1 1 0 0 0-.02 1.409zM14.979 44H20v5.246L9.449 59.581l-5.041-5.227zM25.5 27a1.5 1.5 0 1 0-1.5-1.5 1.5 1.5 0 0 0 1.5 1.5zm0-2a.5.5 0 1 1-.5.5.5.5 0 0 1 .5-.5zM22.293 23.707l1.414-1.414-1.513-1.514a3.335 3.335 0 0 0-.588-3.9c-1.659-1.66-3.358-.769-4.483-.178-1.215.637-1.583.737-2.144.178a1.344 1.344 0 0 1 1.9-1.9l1.414-1.414a3.336 3.336 0 0 0-3.9-.587l-1.685-1.685-1.414 1.414 1.685 1.685a3.338 3.338 0 0 0 .587 3.9c1.662 1.663 3.363.77 4.488.179 1.211-.638 1.579-.738 2.139-.179a1.343 1.343 0 0 1-1.9 1.9l-1.414 1.414a3.3 3.3 0 0 0 3.9.587zM39 26h2v2h-2zM39 30h2v2h-2zM22 34h2v2h-2zM22 38h2v2h-2z"/>
</svg>