<svg xmlns="http://www.w3.org/2000/svg" xmlns:xlink="http://www.w3.org/1999/xlink" width="40" height="60" viewBox="0 0 180 224">
    <defs>
        <style>
            .cls-1 {
            stroke: url(#grad-10);
            }
            .cls-1, .cls-2, .cls-3, .cls-4, .cls-5 {
            fill: none;
            stroke-miterlimit: 10;
            }
            .cls-2 {
            stroke: url(#grad-13);
            }
            .cls-3 {
            stroke: url(#grad-7);
            }
            .cls-4 {
            stroke: url(#grad-4);
            }
            .cls-5 {
            stroke: #2864ea;
            }
            .cls-8 {
            fill: url(#grad-3-2);
            }
            .cls-9 {
            fill: url(#grad-3-3);
            }
            .cls-10 {
            fill: url(#grad-3-4);
            }
            .cls-11 {
            fill: url(#grad-3-5);
            }
            .cls-16 {
            fill: url(#grad-2-5);
            }
            .cls-17 {
            fill: url(#grad-2-6);
            }
            .cls-20 {
            fill: url(#grad-2-2);
            }
            .cls-21 {
            fill: url(#grad-2-3);
            }
            .cls-22 {
            fill: url(#grad-17);
            }
            .cls-23 {
            fill: url(#grad-16);
            }
            .cls-24 {
            fill: url(#grad-19);
            }
            .cls-25 {
            fill: url(#grad-20);
            }
            .cls-26 {
            fill: url(#grad-2);
            }
            .cls-27 {
            fill: url(#grad-3);
            }
        </style>
        <linearGradient id="grad-16" x1="118.5" y1="206.06" x2="176.81" y2="123.63" gradientUnits="userSpaceOnUse">
            <stop offset="0" stop-color="#1016a5"/>
            <stop offset=".63" stop-color="#00ddeb"/>
            <stop offset="1" stop-color="#1116a5"/>
        </linearGradient>
        <linearGradient id="grad-3" x1="130.27" y1="203.07" x2="174.33" y2="143.03" gradientUnits="userSpaceOnUse">
            <stop offset="0" stop-color="#1016a5"/>
            <stop offset=".98" stop-color="#00e3ed"/>
        </linearGradient>
        <linearGradient id="grad-20" x1="112.65" y1="165.26" x2="173.24" y2="77.09" gradientUnits="userSpaceOnUse">
            <stop offset="0" stop-color="#1016a5"/>
            <stop offset=".82" stop-color="#00e3ed"/>
            <stop offset="1" stop-color="#0f2bac"/>
        </linearGradient>
        <linearGradient id="grad-2" x1="101.48" y1="128.83" x2="170.86" y2="128.83" gradientUnits="userSpaceOnUse">
            <stop offset="0" stop-color="#109bff"/>
            <stop offset=".98" stop-color="#00e3ed"/>
        </linearGradient>
        <linearGradient id="grad-3-2" x1="104.57" y1="126.02" x2="154.01" y2="53.85" xlink:href="#grad-3"/>
        <linearGradient id="grad-2-2" x1="104.45" y1="118.12" x2="144.78" y2="56.33" xlink:href="#grad-2"/>
        <linearGradient id="grad-2-3" x1="102.71" y1="110.39" x2="104.17" y2="31.1" xlink:href="#grad-2"/>
        <linearGradient id="grad-2-4" x1="101.5" y1="223.18" x2="102.5" y2="223.18" xlink:href="#grad-2"/>
        <linearGradient id="grad-17" x1="58.71" y1="204.66" x2="-.46" y2="113.1" gradientUnits="userSpaceOnUse">
            <stop offset="0" stop-color="#1016a5"/>
            <stop offset=".63" stop-color="#00ddeb"/>
            <stop offset="1" stop-color="#1116a5"/>
        </linearGradient>
        <linearGradient id="grad-3-3" x1="53.21" y1="208.51" x2="-.59" y2="132.48" xlink:href="#grad-3"/>
        <linearGradient id="grad-19" x1="69.41" y1="172.21" x2="12.57" y2="80.3" gradientUnits="userSpaceOnUse">
            <stop offset="0" stop-color="#1016a5"/>
            <stop offset=".82" stop-color="#00e3ed"/>
            <stop offset="1" stop-color="#0f2bac"/>
        </linearGradient>
        <linearGradient id="grad-2-5" x1="-883.73" y1="128.65" x2="-814.35" y2="128.65" gradientTransform="translate(-805.38) rotate(-180) scale(1 -1)" xlink:href="#grad-2"/>
        <linearGradient id="grad-3-4" x1="-880.64" y1="125.85" x2="-831.21" y2="53.67" gradientTransform="translate(-805.38) rotate(-180) scale(1 -1)" xlink:href="#grad-3"/>
        <linearGradient id="grad-2-6" x1="-880.76" y1="117.94" x2="-840.43" y2="56.15" gradientTransform="translate(-805.38) rotate(-180) scale(1 -1)" xlink:href="#grad-2"/>
        <linearGradient id="grad-3-5" x1="75.87" y1="98.05" x2="75.15" y2="-59.58" xlink:href="#grad-3"/>
        <linearGradient id="grad-2-7" x1="-883.72" y1="223" x2="-882.72" y2="223" gradientTransform="translate(-805.38) rotate(-180) scale(1 -1)" xlink:href="#grad-2"/>
    </defs>
    <g>
        <g>
            <path class="cls-23" d="M144.42,178.05c-38.47,22.8-42.21,43.84-42.41,45.13-.21.17-.32.26-.32.26,0,0-.64-30.53,39.07-54.07,39.71-23.53,37.26-54.07,37.26-54.07,0,0,.25,1.16.57,3.2.37,10.06-1.49,40.18-34.17,59.55Z"/>
            <path class="cls-27" d="M157.67,184c-29.11,17.23-52.67,36.68-55.66,39.18.2-1.29,3.94-22.33,42.41-45.13,32.68-19.37,34.54-49.49,34.17-59.55,1.75,11.36,5.51,49.87-20.92,65.5Z"/>
            <path class="cls-25" d="M160.55,116.53c-10.01,10.91-22.39,15.11-42.29,34.96-19.08,19.03-16.8,29.13-16.58,29.92-.39-1-6.74-18.65,12.58-37.92,19.9-19.85,32.28-24.05,42.29-34.96,10.02-10.9,8.43-32.35,8.43-32.35,0,0,0,.01.01.02.17.95,5.41,29.61-4.44,40.33Z"/>
            <path class="cls-26" d="M165.72,123.45c-11.99,15.46-26.18,23.98-43.37,37.33-17.18,13.36-20.66,20.68-20.66,20.68,0,0-.01-.02-.01-.05-.22-.79-2.5-10.89,16.58-29.92,19.9-19.85,32.28-24.05,42.29-34.96,9.85-10.72,4.61-39.38,4.44-40.33.35.88,12.55,32.01.73,47.25Z"/>
            <path class="cls-8" d="M145.9,87.63c-3.11,13.21-20.5,24.98-23.55,27.35-17.18,13.35-20.66,20.68-20.66,20.68,0,0-.03-.08-.08-.23-.53-1.74-3.07-13.2,15.21-31.44,6.26-6.24,17.13-16.7,20.99-22.9,8.01-12.84,2.34-29.31,1.77-30.87,0-.03,0-.05-.02-.07.57,1.09,10.37,20.34,6.34,37.48Z"/>
            <path class="cls-20" d="M137.81,81.09c-3.86,6.2-14.73,16.66-20.99,22.9-18.28,18.24-15.74,29.7-15.21,31.44-.86-2.37-7.49-22.78,11.21-41.44,6.26-6.24,17.13-16.7,20.99-22.9,7.8-12.5,6.06-19.86,5.77-20.87.57,1.56,6.24,18.03-1.77,30.87Z"/>
            <path class="cls-5" d="M139.54,50.1s.01.02.02.05"/>
            <path class="cls-21" d="M89.92,104.17s25.45-41.98,27.35-47.07c1.91-5.09,1.91-16.54,0-22.02C113.08,23.05,89.92.18,89.92.18v103.99Z"/>
            <path class="cls-4" d="M102.01,223.18s-.01.06-.01.06"/>
        </g>
        <g>
            <path class="cls-22" d="M35.42,177.87c38.47,22.8,42.21,43.84,42.41,45.13.21.17.32.26.32.26,0,0,.64-30.53-39.07-54.07C-.63,145.66,1.82,115.12,1.82,115.12c0,0-.25,1.16-.57,3.2-.37,10.06,1.49,40.18,34.17,59.55Z"/>
            <path class="cls-9" d="M22.17,183.82c29.11,17.23,52.67,36.68,55.66,39.18-.2-1.29-3.94-22.33-42.41-45.13C2.74,158.5.88,128.38,1.25,118.32c-1.75,11.36-5.51,49.87,20.92,65.5Z"/>
            <path class="cls-24" d="M19.29,116.35c10.01,10.91,22.39,15.11,42.29,34.96,19.08,19.03,16.8,29.13,16.58,29.92.39-1,6.74-18.65-12.58-37.92-19.9-19.85-32.28-24.05-42.29-34.96-10.02-10.9-8.43-32.35-8.43-32.35,0,0,0,.01-.01.02-.17.95-5.41,29.61,4.44,40.33Z"/>
            <path class="cls-16" d="M14.12,123.27c11.99,15.46,26.18,23.98,43.37,37.33,17.18,13.36,20.66,20.68,20.66,20.68,0,0,.01-.02.01-.05.22-.79,2.5-10.89-16.58-29.92-19.9-19.85-32.28-24.05-42.29-34.96-9.85-10.72-4.61-39.38-4.44-40.33-.35.88-12.55,32.01-.73,47.25Z"/>
            <path class="cls-10" d="M33.94,87.45c3.11,13.21,20.5,24.98,23.55,27.35,17.18,13.35,20.66,20.68,20.66,20.68,0,0,.03-.08.08-.23.53-1.74,3.07-13.2-15.21-31.44-6.26-6.24-17.13-16.7-20.99-22.9-8.01-12.84-2.34-29.31-1.77-30.87,0-.03,0-.05.02-.07-.57,1.09-10.37,20.34-6.34,37.48Z"/>
            <path class="cls-17" d="M42.03,80.91c3.86,6.2,14.73,16.66,20.99,22.9,18.28,18.24,15.74,29.7,15.21,31.44.86-2.37,7.49-22.78-11.21-41.44-6.26-6.24-17.13-16.7-20.99-22.9-7.8-12.5-6.06-19.86-5.77-20.87-.57,1.56-6.24,18.03,1.77,30.87Z"/>
            <path class="cls-5" d="M40.3,49.92s-.01.02-.02.05"/>
            <path class="cls-11" d="M89.92,103.99s-25.45-41.98-27.35-47.07c-1.91-5.09-1.91-16.54,0-22.02C66.75,22.87,89.92,0,89.92,0v103.99Z"/>
            <path class="cls-3" d="M77.83,223s.01.06.01.06"/>
        </g>
    </g>
</svg>