<svg xmlns="http://www.w3.org/2000/svg" enable-background="new 0 0 64 64" viewBox="0 0 64 64" id="estate">
    <path d="M53,53c-0.551,0-1-0.449-1-1h-2c0,1.302,0.839,2.402,2,2.816V56h2v-1.184c1.161-0.414,2-1.514,2-2.816c0-1.654-1.346-3-3-3
	c-0.551,0-1-0.449-1-1s0.449-1,1-1s1,0.449,1,1h2c0-1.302-0.839-2.402-2-2.816V44h-2v1.184c-1.161,0.414-2,1.514-2,2.816
	c0,1.654,1.346,3,3,3c0.551,0,1,0.449,1,1S53.551,53,53,53z"/>
    <path d="M2.512,27.873c0.316,0.177,0.704,0.167,1.012-0.021L7,25.712V61c0,0.552,0.448,1,1,1h42c0.552,0,1-0.448,1-1v-2.232
	C51.644,58.915,52.312,59,53,59c4.962,0,9-4.038,9-9s-4.038-9-9-9c-0.688,0-1.356,0.085-2,0.232V25.712l3.476,2.139
	C54.636,27.95,54.818,28,55,28c0.168,0,0.336-0.042,0.488-0.127C55.804,27.696,56,27.362,56,27v-7c0-0.356-0.19-0.687-0.499-0.865
	L48,14.788V5c0-0.552-0.448-1-1-1h-5c-0.552,0-1,0.448-1,1v4.769L29.5,3.134c-0.317-0.183-0.711-0.178-1.023,0.015l-26,16
	C2.18,19.331,2,19.653,2,20v7C2,27.362,2.196,27.696,2.512,27.873z M60,50c0,3.86-3.14,7-7,7s-7-3.14-7-7s3.14-7,7-7S60,46.14,60,50
	z M24,46c-1.103,0-2-0.897-2-2s0.897-2,2-2s2,0.897,2,2S25.103,46,24,46z M23,48h2c1.654,0,3,1.142,3,2.546V56h-8v-5.454
	C20,49.142,21.346,48,23,48z M34,46c-1.103,0-2-0.897-2-2s0.897-2,2-2s2,0.897,2,2S35.103,46,34,46z M33,48h2
	c1.654,0,3,1.142,3,2.546V56h-8v-5.454C30,49.142,31.346,48,33,48z M37.136,46.453C37.669,45.773,38,44.928,38,44
	c0-2.206-1.794-4-4-4s-4,1.794-4,4c0,0.928,0.331,1.773,0.864,2.453c-0.741,0.321-1.378,0.8-1.864,1.394
	c-0.486-0.593-1.123-1.072-1.864-1.394C27.669,45.773,28,44.928,28,44c0-2.206-1.794-4-4-4s-4,1.794-4,4
	c0,0.928,0.331,1.773,0.864,2.453C19.177,47.184,18,48.737,18,50.546V56h-5V31h32v14.896c-0.635,1.232-1,2.625-1,4.104
	s0.365,2.872,1,4.104V56h-5v-5.454C40,48.737,38.823,47.184,37.136,46.453z M49,41.95c-0.729,0.364-1.4,0.822-2,1.361V30
	c0-0.552-0.448-1-1-1H12c-0.552,0-1,0.448-1,1v27c0,0.552,0.448,1,1,1h34c0.552,0,1-0.448,1-1v-0.311c0.6,0.539,1.271,0.998,2,1.361
	V60H9V24.482l20-12.307l20,12.307V41.95z M4,20.559L29.017,5.164L41.5,12.366c0.309,0.179,0.69,0.178,1,0
	c0.31-0.178,0.5-0.508,0.5-0.866V6h3v9.364c0,0.356,0.19,0.687,0.499,0.865L54,20.576v4.634L29.524,10.148
	C29.363,10.049,29.182,10,29,10s-0.363,0.049-0.524,0.148L4,25.21V20.559z"/>
    <rect width="2" height="2" x="4" y="2"/>
    <rect width="2" height="2" x="4" y="6"/>
    <rect width="2" height="2" x="6" y="4"/>
    <rect width="2" height="2" x="2" y="4"/>
    <rect width="2" height="2" x="58" y="2"/>
    <rect width="2" height="2" x="58" y="6"/>
    <rect width="2" height="2" x="60" y="4"/>
    <rect width="2" height="2" x="56" y="4"/>
</svg>