<svg xmlns="http://www.w3.org/2000/svg" enable-background="new 0 0 64 64" viewBox="0 0 64 64" id="financial">
    <path d="M3 62h10c.552 0 1-.448 1-1V51c0-.552-.448-1-1-1H3c-.552 0-1 .448-1 1v10C2 61.552 2.448 62 3 62zM4 52h8v8H4V52zM19 62h10c.552 0 1-.448 1-1V44c0-.552-.448-1-1-1H19c-.552 0-1 .448-1 1v17C18 61.552 18.448 62 19 62zM20 45h8v15h-8V45zM46 61V49c0-.552-.448-1-1-1H35c-.552 0-1 .448-1 1v12c0 .552.448 1 1 1h10C45.552 62 46 61.552 46 61zM44 60h-8V50h8V60zM61 36H51c-.552 0-1 .448-1 1v24c0 .552.448 1 1 1h10c.552 0 1-.448 1-1V37C62 36.448 61.552 36 61 36zM60 60h-8V38h8V60zM32 27c.551 0 1 .449 1 1h2c0-1.654-1.346-3-3-3s-3 1.346-3 3c0 2.111 1.691 2.638 2.701 2.953C32.83 31.305 33 31.442 33 32c0 .551-.449 1-1 1s-1-.449-1-1h-2c0 1.654 1.346 3 3 3s3-1.346 3-3c0-2.114-1.692-2.641-2.704-2.957C31.169 28.692 31 28.556 31 28 31 27.449 31.449 27 32 27zM50 14c.551 0 1 .449 1 1h2c0-1.654-1.346-3-3-3s-3 1.346-3 3c0 2.111 1.691 2.638 2.701 2.953C50.83 18.305 51 18.442 51 19c0 .551-.449 1-1 1s-1-.449-1-1h-2c0 1.654 1.346 3 3 3s3-1.346 3-3c0-2.114-1.692-2.641-2.704-2.957C49.169 15.692 49 15.556 49 15 49 14.449 49.449 14 50 14zM10 24c.551 0 1 .449 1 1h2c0-1.654-1.346-3-3-3s-3 1.346-3 3c0 2.111 1.691 2.638 2.701 2.953C10.83 28.305 11 28.442 11 29c0 .551-.449 1-1 1s-1-.449-1-1H7c0 1.654 1.346 3 3 3s3-1.346 3-3c0-2.114-1.692-2.641-2.704-2.957C9.169 25.692 9 25.556 9 25 9 24.449 9.449 24 10 24z"/>
    <path d="M61,2h-5v2h2.796l-5.151,5.887C52.55,9.324,51.313,9,50,9c-4.411,0-8,3.589-8,8c0,1.79,0.598,3.44,1.596,4.774l-5.067,3.619
	C37.079,23.344,34.696,22,32,22c-3.685,0-6.787,2.508-7.712,5.903l-6.294-0.787C17.995,27.077,18,27.039,18,27c0-4.411-3.589-8-8-8
	s-8,3.589-8,8s3.589,8,8,8c3.685,0,6.787-2.508,7.712-5.903l6.294,0.787C24.005,29.923,24,29.961,24,30c0,4.411,3.589,8,8,8
	s8-3.589,8-8c0-0.995-0.191-1.945-0.525-2.825l5.521-3.943C46.367,24.336,48.107,25,50,25c4.411,0,8-3.589,8-8
	c0-2.375-1.046-4.506-2.696-5.972L60,5.661V8h2V3C62,2.448,61.552,2,61,2z M10,33c-3.309,0-6-2.691-6-6s2.691-6,6-6s6,2.691,6,6
	S13.309,33,10,33z M32,36c-3.309,0-6-2.691-6-6s2.691-6,6-6s6,2.691,6,6S35.309,36,32,36z M56,17c0,3.309-2.691,6-6,6s-6-2.691-6-6
	s2.691-6,6-6S56,13.691,56,17z"/>
    <rect width="2" height="2" x="4" y="2"/>
    <rect width="2" height="2" x="4" y="6"/>
    <rect width="2" height="2" x="6" y="4"/>
    <rect width="2" height="2" x="2" y="4"/>
    <rect width="2" height="2" x="58" y="27"/>
    <rect width="2" height="2" x="58" y="31"/>
    <rect width="2" height="2" x="60" y="29"/>
    <rect width="2" height="2" x="56" y="29"/>
    <rect width="2" height="2" x="31" y="9"/>
    <rect width="2" height="2" x="31" y="13"/>
    <rect width="2" height="2" x="33" y="11"/>
    <rect width="2" height="2" x="29" y="11"/>
</svg>