<svg xmlns="http://www.w3.org/2000/svg" width="180" height="26" viewBox="0 0 180 26" fill="none">
    <path d="M17.1694 15.8949V21.605C16.3211 22.9112 15.2607 23.9438 14.0059 24.7116C12.592 25.5677 11.0368 26.0001 9.34021 26.0001C7.6436 26.0001 6.05302 25.5589 4.63918 24.6851C3.22533 23.8114 2.10309 22.6376 1.25479 21.1638C0.415318 19.6987 -0.00883484 18.0748 -0.00883484 16.2921C-0.00883484 14.5093 0.415318 12.8854 1.25479 11.4204C2.09426 9.95533 3.22533 8.78154 4.63918 7.89899C6.05302 7.02526 7.61709 6.58398 9.34021 6.58398C10.5243 6.58398 11.6377 6.7958 12.6981 7.22825C13.7496 7.6607 14.7835 8.33144 15.782 9.25812L13.1046 11.7734C12.4683 11.2262 11.8498 10.8379 11.2489 10.5996C10.648 10.3613 10.0118 10.2466 9.34021 10.2466C8.2975 10.2466 7.35199 10.5202 6.48601 11.0674C5.62887 11.6145 4.93962 12.3471 4.4271 13.2561C3.91458 14.1651 3.65832 15.1889 3.65832 16.3009C3.65832 17.4129 3.91458 18.4278 4.4271 19.3457C4.93962 20.2635 5.62003 20.9961 6.48601 21.5344C7.34315 22.0728 8.2975 22.3464 9.34021 22.3464C10.1797 22.3464 10.9661 22.1699 11.6907 21.808C12.4153 21.4462 13.025 20.9872 13.5022 20.4136V15.8861H15.8704L17.1605 15.9126L17.1694 15.8949Z" fill="var(--color-inverse)"/>
    <path d="M22.1885 10.5733C22.1885 11.0146 22.0206 11.4029 21.676 11.7383C21.3314 12.0825 20.9426 12.2502 20.5096 12.2502C20.0766 12.2502 19.6789 12.0825 19.3432 11.7383C18.9985 11.3941 18.8306 11.0058 18.8306 10.5733C18.8306 10.1409 18.9985 9.74373 19.3432 9.40836C19.6878 9.06417 20.0766 8.89648 20.5096 8.89648C20.9426 8.89648 21.3402 9.06417 21.676 9.40836C22.0206 9.75256 22.1885 10.1409 22.1885 10.5733ZM20.9867 12.815H22.1797V25.8944H18.8218V12.815H20.9867Z" fill="var(--color-inverse)"/>
    <path d="M35.3903 12.815H36.5832V25.8856H33.2253V25.2237C32.9691 25.409 32.5538 25.5855 31.9882 25.7532C31.4227 25.9209 30.813 26.0003 30.1591 26.0003C28.9926 26.0003 27.9234 25.7003 26.9602 25.0913C25.9882 24.4823 25.2194 23.6792 24.6362 22.6643C24.053 21.6494 23.7614 20.5462 23.7614 19.3371C23.7614 18.128 24.053 17.0336 24.6362 16.0187C25.2194 15.0037 25.9971 14.2006 26.9602 13.5916C27.9234 12.9827 28.9926 12.6826 30.1591 12.6826C30.813 12.6826 31.4227 12.762 31.9882 12.9297C32.5538 13.0974 32.9691 13.2739 33.2253 13.4593V12.7973H35.3903V12.815ZM30.1591 22.6466C31.0074 22.6466 31.732 22.3289 32.3152 21.7023C32.8984 21.0757 33.1988 20.2814 33.1988 19.3459C33.1988 18.4104 32.9072 17.6337 32.3152 16.9983C31.732 16.3717 31.0074 16.054 30.1591 16.054C29.3108 16.054 28.5773 16.3717 27.9941 16.9983C27.4109 17.6337 27.1193 18.4104 27.1193 19.3459C27.1193 20.2814 27.4109 21.0757 27.9941 21.7023C28.5773 22.3377 29.3019 22.6466 30.1591 22.6466Z" fill="var(--color-inverse)"/>
    <path d="M50.0059 25.912H46.6568V19.4075C46.6392 18.4279 46.3652 17.6513 45.8439 17.0599C45.3225 16.4775 44.6686 16.1774 43.891 16.1774H41.9823V25.9031H38.6333V12.8325H42.2209L43.6348 12.8413H43.891C43.9971 12.8325 44.0943 12.8413 44.1826 12.8413H44.2003L44.5272 12.8678C46.0648 13.062 47.3549 13.7415 48.3711 14.8889C49.3962 16.0362 49.9352 17.4218 50.0147 19.0457V25.8943L50.0059 25.912Z" fill="var(--color-inverse)"/>
    <path d="M55.7761 8.11963V25.9031H52.3741V8.11963H55.7761Z" fill="var(--color-inverse)"/>
    <path d="M69.2872 12.8413V25.9208H66.2474L66.0088 25.9031H64.2857L64.0295 25.9208C63.9234 25.9208 63.8262 25.9208 63.7379 25.9031H63.7202L63.3932 25.8766C61.8468 25.6825 60.5655 25.0029 59.5493 23.8556C58.5243 22.7083 57.9764 21.3138 57.9057 19.69V12.8413H61.2548V19.5576C61.2548 20.4136 61.5199 21.1373 62.0589 21.7022C62.5979 22.267 63.2518 22.5582 64.0295 22.5582H65.9293V12.8325H69.2872V12.8413Z" fill="var(--color-inverse)"/>
    <path d="M79.8203 20.4578L82.3653 22.7701C81.7202 23.7586 80.9337 24.5264 79.9971 25.0736C79.0604 25.6208 78.0619 25.9032 76.9838 25.9032C75.8439 25.9032 74.8012 25.6031 73.8469 25.0118C72.8925 24.4205 72.1237 23.6262 71.5582 22.6289C70.9838 21.6316 70.701 20.5461 70.701 19.3547C70.701 18.1632 70.9838 17.0865 71.5582 16.0892C72.1326 15.0919 72.8925 14.2976 73.8469 13.7063C74.8012 13.115 75.8439 12.8149 76.9838 12.8149C78.5656 12.8149 80.0324 13.4416 81.3932 14.686L79.0162 16.9718C78.3623 16.4069 77.6819 16.1245 76.9838 16.1245C76.1532 16.1245 75.4463 16.4334 74.8719 17.06C74.2975 17.6866 74.0147 18.4545 74.0147 19.3635C74.0147 20.2725 74.2975 21.058 74.8719 21.6758C75.4463 22.3024 76.1532 22.6113 76.9838 22.6113C77.5759 22.6113 78.1061 22.4348 78.5832 22.0906C79.0604 21.7464 79.4669 21.208 79.8203 20.4755V20.4578Z" fill="var(--color-inverse)"/>
    <path d="M94.6922 12.815H95.8851V25.8856H92.5273V25.2237C92.271 25.409 91.8557 25.5855 91.2901 25.7532C90.7246 25.9209 90.1149 26.0003 89.461 26.0003C88.2946 26.0003 87.2253 25.7003 86.2622 25.0913C85.2901 24.4823 84.5214 23.6792 83.9382 22.6643C83.3549 21.6494 83.0633 20.5462 83.0633 19.3371C83.0633 18.128 83.3549 17.0336 83.9382 16.0187C84.5214 15.0037 85.299 14.2006 86.2622 13.5916C87.2253 12.9827 88.2946 12.6826 89.461 12.6826C90.1149 12.6826 90.7246 12.762 91.2901 12.9297C91.8557 13.0974 92.271 13.2739 92.5273 13.4593V12.7973H94.6922V12.815ZM89.461 22.6466C90.3093 22.6466 91.0339 22.3289 91.6171 21.7023C92.2003 21.0757 92.5007 20.2814 92.5007 19.3459C92.5007 18.4104 92.2091 17.6337 91.6171 16.9983C91.0339 16.3717 90.3093 16.054 89.461 16.054C88.6127 16.054 87.8792 16.3717 87.296 16.9983C86.7128 17.6337 86.4212 18.4104 86.4212 19.3459C86.4212 20.2814 86.7128 21.0757 87.296 21.7023C87.8792 22.3377 88.6038 22.6466 89.461 22.6466Z" fill="var(--color-inverse)"/>
    <path d="M105.013 25.9736C103.688 25.9206 102.433 25.5853 101.249 24.9763C100.622 24.6497 100.065 24.2614 99.57 23.8113C99.0751 23.3612 98.5714 22.8317 98.0677 22.2492L100.798 19.8222C101.585 20.7577 102.3 21.3931 102.937 21.7285C103.635 22.0992 104.368 22.2845 105.128 22.3022H105.305C105.95 22.3022 106.524 22.2139 107.037 22.0462C107.549 21.8785 107.938 21.6402 108.203 21.3314C108.504 20.9519 108.663 20.59 108.663 20.2282C108.663 20.184 108.663 20.1399 108.645 20.1046C108.566 19.6722 108.353 19.3103 108.009 19.0102C107.664 18.7102 107.293 18.4807 106.887 18.3307C106.63 18.2248 106.365 18.1277 106.109 18.0394C104.987 17.6158 103.856 17.1392 102.707 16.592C102.15 16.3538 101.532 15.9919 100.86 15.5153C100.18 15.0388 99.623 14.3857 99.19 13.5561C98.9072 12.9295 98.757 12.3028 98.757 11.6762C98.757 11.0055 98.9161 10.3347 99.243 9.67283C99.6672 8.89618 100.268 8.22544 101.046 7.67826C101.823 7.13108 102.68 6.76923 103.617 6.59272C104.05 6.52212 104.474 6.48682 104.907 6.48682C106.056 6.48682 107.222 6.72511 108.406 7.21051C109.591 7.69591 110.677 8.39313 111.649 9.31981L109.096 11.941C108.459 11.3497 107.77 10.8996 107.037 10.5995C106.303 10.2994 105.588 10.1406 104.898 10.1406C104.669 10.1406 104.448 10.1582 104.236 10.1935C103.423 10.37 102.839 10.7495 102.486 11.332C102.433 11.4291 102.406 11.535 102.406 11.6409C102.406 11.7557 102.442 11.8704 102.504 11.9763C102.619 12.2234 102.839 12.4529 103.149 12.6559C103.467 12.8588 103.856 13.0795 104.333 13.3178C105.305 13.7767 106.33 14.2003 107.426 14.6063C107.682 14.7034 107.947 14.8093 108.221 14.9152C109.317 15.3565 110.218 15.9831 110.943 16.8127C111.667 17.6335 112.109 18.5513 112.268 19.5662C112.303 19.7869 112.321 20.0163 112.321 20.237C112.321 20.8371 112.206 21.4373 111.968 22.0462C111.738 22.6552 111.411 23.2024 110.987 23.6966C110.359 24.4115 109.546 24.9675 108.548 25.3646C107.549 25.7618 106.471 25.9559 105.331 25.9559H105.022L105.013 25.9736Z" fill="#93BFEF"/>
    <path d="M125.001 24.9145C123.817 25.6382 122.642 26 121.476 26C120.177 26 118.993 25.6293 117.923 24.888C116.527 23.8819 115.626 22.5139 115.219 20.7665C115.113 20.2987 115.06 19.8221 115.06 19.3456V17.0598C114.795 17.0686 114.406 17.0774 113.92 17.0774H113.231V13.7325C114.027 13.7325 114.636 13.7325 115.06 13.7061V8.26953H118.436V13.3619C118.728 13.3089 119.267 13.1677 120.062 12.9471C120.362 12.8676 120.866 12.7352 121.564 12.5587L122.395 15.8065C121.714 15.983 121.228 16.1154 120.928 16.1949C119.956 16.4596 119.125 16.6626 118.427 16.7862V19.3544C118.427 19.6015 118.454 19.8486 118.498 20.0781C118.507 20.1134 118.524 20.1575 118.542 20.2016C118.542 20.2722 118.568 20.334 118.586 20.3782C118.86 21.1107 119.258 21.6755 119.753 22.0727C120.256 22.4698 120.831 22.664 121.476 22.664C121.988 22.664 122.536 22.4963 123.119 22.1521L125.001 24.9321V24.9145Z" fill="#93BFEF"/>
    <path d="M131.647 12.7354C132.795 12.7354 133.847 13.0354 134.81 13.6444C135.773 14.2533 136.542 15.0476 137.116 16.0449C137.691 17.0422 137.974 18.1366 137.974 19.328C137.974 20.5195 137.682 21.6315 137.116 22.6288C136.542 23.6261 135.773 24.4292 134.81 25.0293C133.847 25.6294 132.786 25.9295 131.647 25.9295C130.507 25.9295 129.446 25.6294 128.483 25.0293C127.52 24.4292 126.751 23.6349 126.177 22.6288C125.594 21.6315 125.311 20.5283 125.311 19.328C125.311 18.1277 125.602 17.0422 126.177 16.0449C126.751 15.0476 127.52 14.2445 128.483 13.6444C129.437 13.0442 130.498 12.7354 131.647 12.7354ZM131.647 22.5935C132.486 22.5935 133.202 22.2757 133.776 21.6491C134.351 21.0225 134.642 20.2459 134.642 19.328C134.642 18.4102 134.351 17.6335 133.776 17.0069C133.202 16.3803 132.486 16.0626 131.647 16.0626C130.807 16.0626 130.091 16.3803 129.517 17.0069C128.943 17.6335 128.651 18.4102 128.651 19.328C128.651 20.2459 128.943 21.0225 129.517 21.6491C130.091 22.2757 130.807 22.5935 131.647 22.5935Z" fill="#93BFEF"/>
    <path d="M150.212 14.968C149.452 15.1357 148.895 15.2681 148.542 15.3563C147.65 15.5593 146.792 15.7358 145.988 15.8859C145.184 16.0359 144.256 16.133 143.205 16.1859V25.9205H139.617V12.8675H141.349C141.817 12.8675 142.268 12.8499 142.719 12.8322C143.717 12.7969 144.557 12.7175 145.264 12.5939C145.971 12.4704 146.73 12.3115 147.579 12.0997C147.95 12.0203 148.498 11.8967 149.249 11.7202L150.221 14.9592L150.212 14.968Z" fill="#93BFEF"/>
    <path d="M153.906 13.6357C153.8 13.6533 153.694 13.6622 153.588 13.671C153.464 13.6798 153.34 13.6886 153.217 13.6886C153.093 13.6886 152.969 13.6798 152.845 13.671C152.739 13.6622 152.633 13.6533 152.51 13.6357C152.271 13.5916 152.032 13.5298 151.794 13.4503C151.705 13.415 151.608 13.3797 151.564 13.3621C151.555 13.3621 151.555 13.3621 151.538 13.3621V25.912H154.895V13.3621C154.816 13.3974 154.728 13.4239 154.639 13.4592C154.392 13.5386 154.162 13.6004 153.906 13.6445V13.6357ZM153.703 12.8237H151.538V12.859C151.538 12.859 151.617 12.9032 151.661 12.9208C151.67 12.9296 151.688 12.9385 151.705 12.9385C151.776 12.9738 151.865 13.0002 151.944 13.0355C152.147 13.1061 152.368 13.1591 152.589 13.2032C152.686 13.2121 152.784 13.2209 152.89 13.2297C152.996 13.2385 153.11 13.2474 153.217 13.2474C153.331 13.2474 153.437 13.2385 153.552 13.2297C153.649 13.2209 153.747 13.2121 153.844 13.2032C154.074 13.1591 154.286 13.1061 154.498 13.0355C154.577 13.0002 154.657 12.9738 154.736 12.9385C154.736 12.9385 154.763 12.9296 154.772 12.9208C154.816 12.9032 154.86 12.8855 154.895 12.859V12.8326H153.703V12.8237Z" fill="#93BFEF"/>
    <path d="M168.778 16.9364C169.078 17.7042 169.237 18.525 169.237 19.3899L169.219 19.9548C168.928 20.0254 168.751 20.0695 168.698 20.0871C167.85 20.3254 167.001 20.5284 166.171 20.6784C165.526 20.7932 164.757 20.8726 163.873 20.9079C163.184 20.9432 162.486 20.9609 161.788 20.9609C161.39 20.9609 160.993 20.9609 160.595 20.9432L160.268 20.9256C160.418 21.3757 160.736 21.7728 161.214 22.117C161.691 22.4612 162.265 22.6377 162.928 22.6377C163.865 22.6377 164.677 22.1788 165.358 21.2698L168.654 22.523C167.885 23.635 166.984 24.4823 165.95 25.0736C164.916 25.6649 163.909 25.9561 162.928 25.9561C161.779 25.9561 160.728 25.656 159.764 25.0559C158.801 24.4558 158.041 23.6615 157.467 22.6642C156.892 21.6669 156.61 20.5814 156.61 19.3899C156.61 18.1985 156.892 17.1041 157.467 16.1068C158.041 15.1095 158.81 14.3152 159.764 13.7151C160.719 13.1238 161.779 12.8237 162.928 12.8237C164.236 12.8237 165.42 13.2032 166.471 13.971C167.523 14.7389 168.292 15.7273 168.778 16.9364ZM163.714 17.5983C164.58 17.563 165.128 17.5189 165.358 17.466C165.181 17.1218 164.872 16.8217 164.439 16.5481C164.006 16.2745 163.493 16.1421 162.91 16.1421C162.327 16.1421 161.761 16.2922 161.302 16.6099C160.842 16.9188 160.524 17.263 160.365 17.6336H160.604C160.94 17.6601 161.293 17.6601 161.638 17.6601C162.345 17.6601 163.034 17.6425 163.705 17.6072L163.714 17.5983Z" fill="#93BFEF"/>
    <path d="M175.122 25.9471C175.06 25.9471 174.981 25.9471 174.892 25.9383C174.018 25.9118 173.169 25.6912 172.348 25.2764C171.915 25.0557 171.535 24.7822 171.19 24.4644C170.845 24.1467 170.492 23.7849 170.13 23.3701L172.595 21.1637C173.125 21.7991 173.549 22.1963 173.859 22.3551C174.23 22.5405 174.61 22.6464 175.016 22.6464H175.069C175.767 22.6464 176.262 22.5052 176.563 22.2139C176.669 22.0727 176.722 21.958 176.722 21.8786L176.704 21.8344C176.624 21.5344 176.359 21.2873 175.926 21.1107L175.44 20.9342C174.733 20.6783 174.009 20.3694 173.267 20.0075C172.895 19.8487 172.48 19.6016 172.012 19.275C171.543 18.9485 171.155 18.4807 170.845 17.8806C170.633 17.404 170.518 16.9363 170.518 16.4685C170.518 16.0008 170.633 15.4977 170.872 15.0035C171.543 13.8473 172.577 13.1236 173.965 12.8147C174.256 12.7706 174.557 12.7441 174.848 12.7441C175.626 12.7441 176.43 12.9118 177.243 13.2472C178.056 13.5826 178.816 14.0768 179.505 14.7299L177.234 17.104C176.837 16.7245 176.439 16.4509 176.041 16.2744C175.635 16.0978 175.246 16.0096 174.875 16.0096C174.76 16.0096 174.654 16.0184 174.548 16.0361C174.212 16.1067 173.974 16.2479 173.823 16.4685C173.956 16.645 174.265 16.848 174.733 17.0598C175.317 17.3334 175.944 17.5982 176.616 17.8541L177.11 18.0395C178.71 18.7278 179.664 19.831 179.973 21.3402C179.991 21.4991 180 21.6579 180 21.808C180 22.664 179.682 23.5025 179.046 24.3232C178.604 24.8175 178.038 25.2058 177.349 25.4882C176.651 25.7706 175.909 25.9118 175.122 25.9118V25.9471Z" fill="#93BFEF"/>
    <path d="M153.216 5.47217C151.069 5.47217 149.328 7.2108 149.328 9.3554V9.54956C149.346 9.84963 149.39 10.1585 149.479 10.4409C149.487 10.4674 149.496 10.4939 149.505 10.5115C149.558 10.6881 149.62 10.8557 149.7 11.0234C149.788 11.2088 149.894 11.3853 150.009 11.553C150.062 11.6324 150.115 11.703 150.168 11.7648C150.186 11.8001 150.221 11.8354 150.247 11.8707C150.3 11.9236 150.345 11.9854 150.398 12.0384C150.459 12.1001 150.53 12.1707 150.601 12.2413H150.619C150.769 12.3914 150.937 12.5149 151.113 12.6208C151.193 12.6738 151.272 12.7268 151.361 12.7797H151.378C151.432 12.8062 151.485 12.8327 151.538 12.8591C151.573 12.8856 151.617 12.9033 151.661 12.9209C151.67 12.9297 151.688 12.9386 151.705 12.9386C151.776 12.9739 151.865 13.0003 151.944 13.0356C152.147 13.1062 152.368 13.1592 152.589 13.2033C152.686 13.2122 152.784 13.221 152.89 13.2298C152.996 13.2386 153.11 13.2475 153.216 13.2475C153.331 13.2475 153.437 13.2386 153.552 13.2298C153.649 13.221 153.747 13.2122 153.844 13.2033C154.074 13.1592 154.286 13.1062 154.498 13.0356C154.577 13.0003 154.657 12.9739 154.736 12.9386C154.736 12.9386 154.763 12.9297 154.772 12.9209C154.816 12.9033 154.86 12.8856 154.895 12.8591C154.948 12.8327 155.001 12.8062 155.054 12.7797H155.072C155.161 12.7268 155.24 12.6738 155.32 12.6208C155.664 12.409 155.965 12.1443 156.221 11.8265C156.221 11.8265 156.221 11.8177 156.239 11.8089C156.3 11.7206 156.362 11.6412 156.424 11.553C156.486 11.4735 156.53 11.3853 156.583 11.297C156.733 11.0499 156.848 10.794 156.937 10.5115C156.946 10.4939 156.954 10.4674 156.954 10.4409C157.043 10.1585 157.087 9.84963 157.105 9.54956C157.105 9.48778 157.105 9.426 157.105 9.3554C157.105 7.2108 155.355 5.47217 153.208 5.47217H153.216ZM153.216 12.4355C151.52 12.4355 150.133 11.0587 150.133 9.3554C150.133 7.65207 151.52 6.28412 153.216 6.28412C154.913 6.28412 156.3 7.6609 156.3 9.3554C156.3 11.0499 154.922 12.4355 153.216 12.4355Z" fill="#93BFEF"/>
    <path d="M153.216 5.03076C152.907 5.03076 152.598 5.06606 152.306 5.12784C152.324 5.12784 152.333 5.12784 152.351 5.12784H154.082C154.082 5.12784 154.118 5.12784 154.127 5.12784C153.835 5.06606 153.526 5.03076 153.216 5.03076Z" fill="var(--color-inverse)"/>
    <path d="M162.442 2.82422H144C143.7 2.82422 143.461 3.06251 143.461 3.36258C143.461 3.66264 143.7 3.90093 144 3.90093H162.442C162.742 3.90093 162.981 3.66264 162.981 3.36258C162.981 3.06251 162.742 2.82422 162.442 2.82422Z" fill="#93BFEF"/>
    <path d="M150.68 0.538357C150.68 0.238289 150.442 0 150.141 0H141.199C140.898 0 140.66 0.238289 140.66 0.538357C140.66 0.838425 140.898 1.07671 141.199 1.07671H150.141C150.442 1.07671 150.68 0.838425 150.68 0.538357Z" fill="#93BFEF"/>
    <path d="M165.234 0H156.292C155.991 0 155.753 0.238289 155.753 0.538357C155.753 0.838425 155.991 1.07671 156.292 1.07671H165.234C165.535 1.07671 165.773 0.838425 165.773 0.538357C165.773 0.238289 165.535 0 165.234 0Z" fill="#93BFEF"/>
    <path d="M161.629 2.35638C161.85 2.35638 162.035 2.17105 162.035 1.95041C162.035 1.72977 161.85 1.54443 161.629 1.54443H159.897C159.676 1.54443 159.49 1.72977 159.49 1.95041C159.49 2.17105 159.676 2.35638 159.897 2.35638H161.629Z" fill="#93BFEF"/>
    <path d="M144.795 1.54443C144.574 1.54443 144.389 1.72977 144.389 1.95041C144.389 2.17105 144.574 2.35638 144.795 2.35638H146.527C146.748 2.35638 146.934 2.17105 146.934 1.95041C146.934 1.72977 146.748 1.54443 146.527 1.54443H144.795Z" fill="#93BFEF"/>
    <path d="M153.216 6.89258C151.856 6.89258 150.751 7.99577 150.751 9.3549C150.751 10.714 151.856 11.8172 153.216 11.8172C154.577 11.8172 155.682 10.714 155.682 9.3549C155.682 7.99577 154.577 6.89258 153.216 6.89258Z" fill="#030305"/>
    <path d="M154.489 4.73068C154.489 4.93367 154.339 5.11018 154.127 5.12783C154.118 5.12783 154.1 5.12783 154.082 5.12783H152.351C152.351 5.12783 152.324 5.12783 152.306 5.12783C152.103 5.11018 151.944 4.93367 151.944 4.73068C151.944 4.51004 152.13 4.32471 152.351 4.32471H154.082C154.312 4.32471 154.489 4.51004 154.489 4.73068Z" fill="#93BFEF"/>
    <path d="M154.1 9.35495C154.588 9.35495 154.984 8.95982 154.984 8.4724C154.984 7.98498 154.588 7.58984 154.1 7.58984C153.612 7.58984 153.216 7.98498 153.216 8.4724C153.216 8.95982 153.612 9.35495 154.1 9.35495Z" fill="var(--color-inverse)"/>
    <defs>
        <rect width="180" height="26" fill="white"/>
    </defs>
</svg>