<svg xmlns="http://www.w3.org/2000/svg" viewBox="0 0 64 64" id="heart-rate">
    <path d="M21,50V62h2V50a3.00328,3.00328,0,0,1,3-3H38a3.00328,3.00328,0,0,1,3,3V62h2V50a5.00588,5.00588,0,0,0-5-5H36.45953a6,6,0,1,0-8.91906,0H26A5.00588,5.00588,0,0,0,21,50ZM32,37a4,4,0,1,1-4,4A4.00427,4.00427,0,0,1,32,37Z"/>
    <rect width="2" height="12" x="25" y="50"/>
    <rect width="2" height="12" x="37" y="50"/>
    <path d="M31.45605,22.83936a1.00127,1.00127,0,0,0,1.0879,0C34.293,21.70605,40,17.6709,40,13.33643a4.12184,4.12184,0,0,0-3.28711-4.21A5.14825,5.14825,0,0,0,32,10.46387a5.14439,5.14439,0,0,0-4.71289-1.33741A4.12184,4.12184,0,0,0,24,13.33643C24,17.6709,29.707,21.70605,31.45605,22.83936ZM27.73828,11.0752a2.99815,2.99815,0,0,1,.67578-.07569,2.94406,2.94406,0,0,1,2.6875,1.61133,1.0413,1.0413,0,0,0,1.79688,0,3.006,3.006,0,0,1,3.36328-1.53564A2.15558,2.15558,0,0,1,38,13.33643c0,2.48779-3.11816,5.48681-6,7.46191-2.88184-1.9751-6-4.97412-6-7.46191A2.15558,2.15558,0,0,1,27.73828,11.0752Z"/>
    <path d="M56.10547,14.55273l-.87207,1.74463L52.958,8.71289a.9861.9861,0,0,0-.98145-.7124.9982.9982,0,0,0-.94629.75683l-2.168,8.66846-.91406-2.74219A.9989.9989,0,0,0,47,14H44.96191a13.00229,13.00229,0,0,0-25.22168-3.3335l1.88477.667A11.00237,11.00237,0,0,1,43,15a.99974.99974,0,0,0,1,1h2.2793l1.77246,5.31641A.99945.99945,0,0,0,49,22c.0127,0,.02539,0,.03809-.001a.99873.99873,0,0,0,.93164-.75634l2.11816-8.47022,1.9541,6.51465a1.0003,1.0003,0,0,0,1.85254.16016L57.61816,16H63V14H57A1.0004,1.0004,0,0,0,56.10547,14.55273Z"/>
    <path d="M7.89453,15.44727l.87207-1.74463L11.042,21.28711a.9999.9999,0,0,0,1.92774-.04443l2.168-8.66846.91406,2.74219A.9989.9989,0,0,0,17,16h2.03809a13.00229,13.00229,0,0,0,25.22168,3.3335l-1.88477-.667A11.00237,11.00237,0,0,1,21,15a.99974.99974,0,0,0-1-1H17.7207L15.94824,8.68359a.97174.97174,0,0,0-.98633-.68261.99873.99873,0,0,0-.93164.75634l-2.11816,8.47022L9.958,10.71289a1.00036,1.00036,0,0,0-.87207-.709.97471.97471,0,0,0-.98047.54882L6.38184,14H1v2H7A1.0004,1.0004,0,0,0,7.89453,15.44727Z"/>
</svg>