<svg xmlns="http://www.w3.org/2000/svg" viewBox="0 0 64 64" width="35" height="35"><path fill="#00dc82" d="M9.4828 48.5472a1.0447 1.0447 0 0 0 .74-.3066l3.6323-3.6328a1.046 1.046 0 1 0-1.479-1.4795L8.7435 46.7621a1.0459 1.0459 0 0 0 .7393 1.7851zM18.9867 49.7386l-3.6328 3.6338a1.0455 1.0455 0 0 0 1.4785 1.4785l3.6333-3.6328a1.046 1.046 0 0 0-1.479-1.48zM12.6752 49.44L6.4135 55.7015a1.046 1.046 0 0 0 1.479 1.4795l6.2617-6.2617a1.046 1.046 0 0 0-1.479-1.48zM17.9315 39.0306c-2.9765 2.9766-2.5713 8.02-2.5527 8.2334a1.0469 1.0469 0 0 0 .95.9512c.0322.002.3271.0273.8032.0273h0a14.0282 14.0282 0 0 0 3.374-.4062 8.6167 8.6167 0 0 0 4.0567-2.1738A13.0971 13.0971 0 0 0 26.52 43.1839l-6.1094-6.11A13.1062 13.1062 0 0 0 17.9315 39.0306zM20.7255 29.6151A50.6617 50.6617 0 0 1 23.96 24.4022c.8038-1.1489 1.6705-2.31 2.57-3.4487a6.3082 6.3082 0 0 0-3.6851-.6177 1.0422 1.0422 0 0 0-.5493.252l-8.5674 7.5546a1.0457 1.0457 0 0 0 .9561 1.7959A15.0165 15.0165 0 0 1 20.7255 29.6151zM39.1918 39.6332a50.2981 50.2981 0 0 1-5.2183 3.2382 9.6956 9.6956 0 0 1 .1792 2.7139 19.2023 19.2023 0 0 1-.497 3.3252 1.0457 1.0457 0 0 0 1.7959.9551l7.5551-8.5674a1.0351 1.0351 0 0 0 .251-.55 6.3043 6.3043 0 0 0-.6172-3.6855C41.5014 37.9632 40.34 38.83 39.1918 39.6332zM56.5272 7.0668a1.0438 1.0438 0 0 0-.7553-.3062 39.1058 39.1058 0 0 0-8.0987 1.2017A37.35 37.35 0 0 0 40.2645 10.64a27.4367 27.4367 0 0 0-7.3237 5.1548 73.51 73.51 0 0 0-7.8379 9.4072c-1.8091 2.585-4.1079 6.2617-4.7876 9.0987a1.0457 1.0457 0 0 0 .2774.9834L28.31 43.0013a1.05 1.05 0 0 0 .9829.2774c2.8379-.68 6.5146-2.9785 9.1-4.7871a73.4783 73.4783 0 0 0 9.4067-7.8379 27.4516 27.4516 0 0 0 5.1553-7.3247 37.3016 37.3016 0 0 0 2.6767-7.4082 39.1149 39.1149 0 0 0 1.2027-8.0987A1.0467 1.0467 0 0 0 56.5272 7.0668zM45.806 23.7635a4.2251 4.2251 0 1 1 0-5.9755A4.2251 4.2251 0 0 1 45.806 23.7635z" class="svgShape color231f20-0 selectable"/></svg>