<svg xmlns="http://www.w3.org/2000/svg" viewBox="0 0 64 64" id="leisure">
    <path d="M14.223 14.948a1 1 0 0 0 .576.979l5.13 2.383a.997.997 0 0 0 .694.055l26.063-7.407a1.977 1.977 0 0 0 1.286-1.55 1.978 1.978 0 0 0-.715-1.883l-.52-.42a7.04 7.04 0 0 0-6.805-1.13l-3.99 1.459-8.18-5.274a.995.995 0 0 0-.885-.099l-2.817 1.03a1 1 0 0 0-.347 1.663l5.34 5.091-14.119 4.217a1 1 0 0 0-.711.886zm17.053-3.68a.998.998 0 0 0 .404-1.682l-5.422-5.169.839-.307 8.181 5.274a1 1 0 0 0 .885.099l4.457-1.63a5.027 5.027 0 0 1 4.861.807l.517.418-25.563 7.262-2.403-1.116 13.244-3.956zm30.623 37.738a3 3 0 0 0-1.558-1.914l-.445-.223a2.985 2.985 0 0 0-3.783.94L52.406 53h-5.417l3.49-13.738 7.793 1.866a1 1 0 0 0 1.206-.74c.565-2.36.068-4.817-1.398-6.92-1.441-2.066-3.654-3.544-6.23-4.162-2.577-.616-5.218-.302-7.44.888-2.26 1.21-3.816 3.176-4.381 5.536a1.002 1.002 0 0 0 .74 1.206l7.766 1.86L44.925 53H35c-1.654 0-3 1.346-3 3s1.346 3 3 3h1.461l-1.276 2.553 1.789.895L38.698 59h13.684l1.724 3.447 1.789-.895L54.618 59h.767c.67 0 1.292-.333 1.664-.891l4.446-6.669a2.997 2.997 0 0 0 .404-2.434zm-10.524-17.72c.528 1.508.87 3.063.997 4.639.05.588.062 1.168.055 1.747l-4.883-1.169c.256-.52.53-1.032.842-1.536a18.561 18.561 0 0 1 2.989-3.681zm5.064 3.326c.928 1.331 1.357 2.833 1.248 4.319l-3.278-.785c.028-.795.024-1.584-.044-2.386a20.401 20.401 0 0 0-.627-3.579 8.218 8.218 0 0 1 2.701 2.431zm-11.086-2.654a8.195 8.195 0 0 1 3.509-.944 20.345 20.345 0 0 0-2.179 2.904c-.425.687-.786 1.39-1.121 2.111l-3.278-.785c.575-1.375 1.639-2.521 3.069-3.286zm14.479 18.373L55.385 57H35c-.551 0-1-.449-1-1s.449-1 1-1h17.92a1 1 0 0 0 .814-.419l4.007-5.609a.994.994 0 0 1 1.26-.313l.445.223c.26.13.445.356.519.638a.984.984 0 0 1-.133.811zM7 55.3V62h2v-7a.999.999 0 0 0-.166-.551l-3.45-5.216A11.032 11.032 0 0 1 4 43.891V42h1c0 2.936 1.337 9 5.472 9h5.056C19.514 51 21 45.479 21 42h1v1.891c0 1.865-.479 3.712-1.345 5.276l-3.49 5.282A1.006 1.006 0 0 0 17 55v7h2v-6.7l3.364-5.096A13.03 13.03 0 0 0 24 43.891V41a1 1 0 0 0-1-1h-3a1 1 0 0 0-1 1v1c0 2.031-.709 5.52-2.359 6.637A3.965 3.965 0 0 0 17 47c0-2.206-1.794-4-4-4s-4 1.794-4 4c0 .577.128 1.123.349 1.619C7.723 47.47 7 43.959 7 42v-1a1 1 0 0 0-1-1H3a1 1 0 0 0-1 1v2.891c0 2.204.566 4.387 1.676 6.379L7 55.3zM13 45c1.103 0 2 .897 2 2s-.897 2-2 2-2-.897-2-2 .897-2 2-2z"/>
</svg>