<svg xmlns="http://www.w3.org/2000/svg" viewBox="0 0 24 24" width="35" height="35"><defs><clipPath id="a"><rect width="24" height="24" x="24" rx="0" fill="none" class="selectable"/></clipPath></defs><g clip-path="url(#a)" transform="matrix(-1 0 0 1 48 0)"><path fill="#00dc82" fill-rule="evenodd" d="M40.362 6.248q-.542-.542-1.308-.542-.767 0-1.309.541L35.91 8.082l-.01.01-8.707 8.708q-.934.933-.934 2.254t.934 2.253 2.253.934 2.254-.934l10.553-10.552q.541-.542.541-1.309t-.541-1.308zm-3.926 3.43-8.182 8.183q-.495.494-.495 1.193 0 .698.495 1.193.494.494 1.192.494.7 0 1.193-.495l8.183-8.182zm3.447 1.325 1.309-1.309q.102-.103.102-.248 0-.144-.102-.247L39.3 7.309q-.103-.103-.247-.103t-.248.102l-1.31 1.31z" style="mix-blend-mode:passthrough" class="svgShape color2b2b2b-4 selectable"/><path fill="#00dc82" d="m33.423 5.95-.412 1.254a.275.275 0 0 1-.522 0l-.412-1.255a.83.83 0 0 0-.526-.526l-1.255-.412a.275.275 0 0 1 0-.522l1.255-.412a.83.83 0 0 0 .526-.526l.412-1.255a.275.275 0 0 1 .522 0l.412 1.255c.082.249.277.444.526.526l1.255.412a.275.275 0 0 1 0 .522l-1.255.412a.83.83 0 0 0-.526.526M44.423 16.95l-.412 1.254a.275.275 0 0 1-.522 0l-.412-1.255a.83.83 0 0 0-.526-.526l-1.255-.412a.275.275 0 0 1 0-.522l1.255-.412a.83.83 0 0 0 .526-.526l.412-1.255a.275.275 0 0 1 .522 0l.412 1.255c.082.249.277.444.526.526l1.255.412a.275.275 0 0 1 0 .522l-1.255.412a.83.83 0 0 0-.526.526" style="mix-blend-mode:passthrough" class="svgShape color2b2b2b-5 selectable"/><path fill="#00dc82" d="m44.423 16.95-.412 1.254a.275.275 0 0 1-.522 0l-.412-1.255a.83.83 0 0 0-.526-.526l-1.255-.412a.275.275 0 0 1 0-.522l1.255-.412a.83.83 0 0 0 .526-.526l.412-1.255a.275.275 0 0 1 .522 0l.412 1.255c.082.249.277.444.526.526l1.255.412a.275.275 0 0 1 0 .522l-1.255.412a.83.83 0 0 0-.526.526M44.423 5.45l-.412 1.254a.275.275 0 0 1-.522 0l-.412-1.255a.83.83 0 0 0-.526-.526l-1.255-.412a.275.275 0 0 1 0-.522l1.255-.412a.83.83 0 0 0 .526-.526l.412-1.255a.275.275 0 0 1 .522 0l.412 1.255c.082.249.277.444.526.526l1.255.412a.275.275 0 0 1 0 .522l-1.255.412a.83.83 0 0 0-.526.526" style="mix-blend-mode:passthrough" class="svgShape color2b2b2b-6 selectable"/></g></svg>