<svg xmlns="http://www.w3.org/2000/svg" width="103" height="30" viewBox="0 0 103 30" fill="none">
    <path d="M3.34607 12.7662L0 -0.000113107H2.9433L4.80223 7.61623C4.83321 7.72481 4.87968 7.89544 4.91066 8.11261C4.94165 8.32977 4.98812 8.56245 5.0191 8.79513C5.05008 9.02781 5.08106 9.24498 5.11205 9.43112H5.20499C5.23598 9.29151 5.25147 9.13639 5.26696 8.96576C5.28245 8.79513 5.31343 8.6245 5.34441 8.45387C5.37539 8.28324 5.40638 8.12812 5.43736 7.973C5.46834 7.81788 5.48383 7.7093 5.49932 7.61623L7.23432 -0.000113107H10.5494L12.3154 7.61623C12.3464 7.74032 12.3928 7.91095 12.4238 8.11261C12.4548 8.32977 12.5013 8.54694 12.5323 8.77962C12.5632 9.0123 12.5942 9.22946 12.6252 9.41561H12.7182C12.7491 9.276 12.7646 9.13639 12.7956 8.96576C12.8266 8.81064 12.8576 8.64001 12.8886 8.46938C12.9195 8.29875 12.9505 8.14363 12.997 7.98851C13.028 7.83339 13.059 7.7093 13.0899 7.60072L14.9334 -0.015625H17.5978L14.2363 12.7507H11.0761L9.20168 4.90165C9.1707 4.73101 9.12423 4.52936 9.07776 4.29668C9.03128 4.064 9.0003 3.84684 8.95383 3.61416C8.90736 3.38148 8.89186 3.19534 8.86088 3.02471H8.78343C8.75244 3.19534 8.73695 3.39699 8.70597 3.64518C8.67499 3.89337 8.64401 4.11054 8.59753 4.3277C8.55106 4.54487 8.52008 4.74653 8.47361 4.90165L6.61468 12.7507H3.36156L3.34607 12.7662Z" fill="var(--color-inverse)"/>
    <path d="M19.1624 12.7663V0H21.9353V12.7663H19.1624Z" fill="var(--color-inverse)"/>
    <path d="M28.5965 12.999C27.6206 12.999 26.784 12.8594 26.1024 12.5646C25.4208 12.2699 24.8941 11.8356 24.5224 11.2461C24.1506 10.6567 23.9802 9.92761 23.9802 9.02792V8.45398H26.6911V9.02792C26.6911 9.60186 26.846 10.0207 27.1713 10.2999C27.4811 10.5791 27.9614 10.7187 28.5965 10.7187C29.2316 10.7187 29.6654 10.5171 29.9752 10.1138C30.285 9.71045 30.4399 9.13651 30.4399 8.37642V0H33.2283V8.37642C33.2283 9.40021 33.0424 10.2689 32.6861 10.9514C32.3298 11.6339 31.8031 12.1458 31.1215 12.4871C30.4399 12.8283 29.6034 12.9835 28.6275 12.9835L28.5965 12.999Z" fill="var(--color-inverse)"/>
    <path d="M35.9702 12.7663V0H40.1838L42.0117 6.53051C42.0892 6.76319 42.1667 7.0424 42.2286 7.36815C42.2906 7.6939 42.3835 8.00414 42.461 8.32989C42.5384 8.64012 42.6004 8.93485 42.6624 9.18304H42.8173C42.8483 8.96587 42.8792 8.71768 42.9412 8.42296C43.0032 8.12823 43.0651 7.81799 43.1426 7.47673C43.22 7.13547 43.2975 6.82523 43.3904 6.51499L45.2184 0H49.37V12.7663H46.6436V6.71665C46.6436 6.15822 46.6436 5.59979 46.6436 5.02585C46.6436 4.46743 46.6591 3.97104 46.6746 3.55222C46.69 3.1334 46.7055 2.85419 46.7055 2.73009H46.5506C46.5196 2.8697 46.4732 3.11789 46.3802 3.49018C46.2873 3.86246 46.1943 4.25026 46.0859 4.65357C45.9775 5.05688 45.8845 5.41365 45.7916 5.70838L43.8087 12.7663H41.3921L39.3783 5.72389C39.3008 5.46019 39.2234 5.14995 39.1304 4.80869C39.0375 4.45191 38.9445 4.09514 38.8671 3.70734C38.7896 3.33506 38.7122 3.00931 38.6347 2.73009H38.4798C38.4798 3.07135 38.5108 3.45915 38.5108 3.92451C38.5108 4.38987 38.5417 4.87073 38.5417 5.3516C38.5417 5.84798 38.5572 6.29783 38.5572 6.70114V12.7508H35.9547L35.9702 12.7663Z" fill="var(--color-inverse)"/>
    <path d="M50.8726 12.7663L55.7833 0H59.2068L64.1175 12.7663H61.1277L60.2137 10.2534H54.6524L53.7385 12.7663H50.8726ZM55.458 8.01965H59.4237L58.2928 4.87073C58.2464 4.73113 58.1844 4.57601 58.1224 4.37435C58.0605 4.1727 57.983 3.97104 57.9056 3.73837C57.8281 3.50569 57.7661 3.27301 57.6887 3.04033C57.6112 2.80765 57.5493 2.606 57.4873 2.41986H57.3789C57.3169 2.65253 57.2394 2.93175 57.131 3.24199C57.0381 3.55222 56.9296 3.86246 56.8367 4.15719C56.7437 4.45191 56.6508 4.68459 56.5888 4.87073L55.458 8.01965Z" fill="var(--color-inverse)"/>
    <path d="M65.6356 12.7663V0H68.4085V5.80145L73.8304 0H77.2539L72.3897 5.19648L77.3468 12.7663H74.0317L70.4688 7.10445L68.4085 8.96587V12.7663H65.6356Z" fill="var(--color-inverse)"/>
    <path d="M79.1128 12.7663V0H89.3059V2.26474H81.9012V5.11892H88.4384V7.36815H81.9012V10.4705H89.4143V12.7663H79.1128Z" fill="var(--color-inverse)"/>
    <path d="M91.8155 12.7663V0H94.356L99.4835 6.88728C99.561 6.98035 99.6539 7.08894 99.7624 7.24405C99.8708 7.39917 99.9792 7.55429 100.072 7.6939C100.165 7.84902 100.243 7.9576 100.274 8.05067H100.367V0H102.985V12.7663H100.444L95.208 5.70838C95.0841 5.53775 94.9601 5.33609 94.8207 5.13444C94.6813 4.93278 94.5884 4.76215 94.5264 4.65357H94.4334V12.7663H91.8155Z" fill="var(--color-inverse)"/>
    <path d="M0 29.9997V16.3027H5.57678C7.00196 16.3027 8.21026 16.5509 9.20168 17.0473C10.1931 17.5437 10.9677 18.2883 11.5099 19.2965C12.052 20.3048 12.3154 21.5923 12.3154 23.159C12.3154 24.7257 12.052 25.9977 11.5099 27.0215C10.9677 28.0297 10.2086 28.7898 9.20168 29.2707C8.19477 29.7515 7.00196 30.0152 5.57678 30.0152H0V29.9997ZM2.97428 27.5489H5.56129C6.16544 27.5489 6.69213 27.4558 7.15687 27.2852C7.6216 27.1145 8.00887 26.8508 8.31869 26.5096C8.62852 26.1683 8.86088 25.7495 9.01579 25.2376C9.1707 24.7257 9.24816 24.1362 9.24816 23.4537V22.8488C9.24816 22.1662 9.1707 21.5768 9.01579 21.0649C8.86088 20.553 8.62852 20.1187 8.31869 19.7929C8.00887 19.4516 7.6216 19.1879 7.15687 19.0173C6.69213 18.8312 6.16544 18.7536 5.56129 18.7536H2.97428V27.5644V27.5489Z" fill="#FF8C00"/>
    <path d="M13.028 29.9997L18.2949 16.3027H21.9663L27.2333 29.9997H24.0266L23.0507 27.3007H17.0866L16.1107 29.9997H13.0435H13.028ZM17.9232 24.9118H22.1677L20.9439 21.5302C20.8974 21.3906 20.82 21.2045 20.758 21.0028C20.6961 20.8012 20.6031 20.5685 20.5257 20.3203C20.4482 20.0721 20.3707 19.8239 20.2933 19.5757C20.2158 19.3276 20.1539 19.1104 20.0764 18.9087H19.9525C19.8905 19.1569 19.7976 19.4516 19.6891 19.7929C19.5807 20.1342 19.4723 20.4599 19.3638 20.7702C19.2554 21.0804 19.1779 21.3441 19.1005 21.5458L17.8767 24.9273L17.9232 24.9118Z" fill="#FF8C00"/>
    <path d="M28.8598 29.9997V16.3027H31.8341V22.5385L37.6588 16.3027H41.3301L36.1096 21.8715L41.4386 29.9997H37.8911L34.0648 23.9346L31.8496 25.9356V30.0152H28.8753L28.8598 29.9997Z" fill="#FF8C00"/>
    <path d="M43.313 29.9997V16.3027H54.2342V18.7381H46.3028V21.7939H53.3202V24.2138H46.3028V27.5489H54.3581V29.9997H43.313Z" fill="#FF8C00"/>
    <path d="M56.9296 29.9997V16.3027H59.656L65.1554 23.6864C65.2328 23.7795 65.3413 23.9036 65.4497 24.0742C65.5736 24.2448 65.6821 24.3999 65.7905 24.5706C65.8989 24.7257 65.9764 24.8498 66.0074 24.9429H66.1003V16.3027H68.9197V29.9997H66.1933L60.57 22.4299C60.4306 22.2438 60.2912 22.0421 60.1518 21.8095C60.0123 21.5768 59.9039 21.4061 59.8264 21.2976H59.7335V29.9997H56.9141H56.9296Z" fill="#FF8C00"/>
    <path d="M72.0799 28.5726C72.0799 27.7815 72.715 27.1455 73.505 27.1455H73.5515C74.3416 27.1455 74.9767 27.7815 74.9767 28.5726C74.9767 29.3637 74.3416 29.9997 73.5515 29.9997H73.505C72.715 29.9997 72.0799 29.3637 72.0799 28.5726Z" fill="#FF8C00"/>
    <path d="M78.0904 29.9997V16.3027H80.8168L86.3161 23.6864C86.3936 23.7795 86.502 23.9036 86.6105 24.0742C86.7344 24.2448 86.8428 24.3999 86.9513 24.5706C87.0597 24.7257 87.1372 24.8498 87.1681 24.9429H87.2611V16.3027H90.0805V29.9997H87.354L81.7308 22.4299C81.5914 22.2438 81.4519 22.0421 81.3125 21.8095C81.1731 21.5768 81.0647 21.4061 80.9872 21.2976H80.8943V29.9997H78.0749H78.0904Z" fill="#FF8C00"/>
        <path d="M93.1322 29.9997V16.3027H96.1065V27.4713H103V29.9997H93.1322Z" fill="#FF8C00"/>
    <defs>
        <rect width="103" height="30" fill="white"/>
    </defs>
</svg>